<mxfile host="app.diagrams.net" modified="2024-05-17T03:29:48.804Z" agent="Mozilla/5.0 (Windows NT 10.0; Win64; x64) AppleWebKit/537.36 (KHTML, like Gecko) Chrome/124.0.0.0 Safari/537.36" etag="hWZMDh9-ij2-AjUamIlW" version="24.4.3" type="github">
  <diagram id="C5RBs43oDa-KdzZeNtuy" name="Page-1">
    <mxGraphModel dx="1195" dy="622" grid="1" gridSize="10" guides="1" tooltips="1" connect="1" arrows="1" fold="1" page="1" pageScale="1" pageWidth="827" pageHeight="1169" math="0" shadow="0">
      <root>
        <mxCell id="WIyWlLk6GJQsqaUBKTNV-0" />
        <mxCell id="WIyWlLk6GJQsqaUBKTNV-1" parent="WIyWlLk6GJQsqaUBKTNV-0" />
        <mxCell id="t_qoF288QhMvxmbiIuJE-21" value="회원" style="shape=umlActor;verticalLabelPosition=bottom;verticalAlign=top;html=1;" parent="WIyWlLk6GJQsqaUBKTNV-1" vertex="1">
          <mxGeometry x="20" y="640" width="30" height="60" as="geometry" />
        </mxCell>
        <mxCell id="t_qoF288QhMvxmbiIuJE-47" value="" style="group" parent="WIyWlLk6GJQsqaUBKTNV-1" vertex="1" connectable="0">
          <mxGeometry x="100" y="585" width="370" height="430" as="geometry" />
        </mxCell>
        <mxCell id="t_qoF288QhMvxmbiIuJE-46" value="" style="rounded=0;whiteSpace=wrap;html=1;" parent="t_qoF288QhMvxmbiIuJE-47" vertex="1">
          <mxGeometry x="70" y="15" width="220" height="430" as="geometry" />
        </mxCell>
        <mxCell id="t_qoF288QhMvxmbiIuJE-22" value="일정 생성" style="ellipse;whiteSpace=wrap;html=1;" parent="t_qoF288QhMvxmbiIuJE-47" vertex="1">
          <mxGeometry x="115" y="40" width="140" height="70" as="geometry" />
        </mxCell>
        <mxCell id="t_qoF288QhMvxmbiIuJE-23" value="일정 수정" style="ellipse;whiteSpace=wrap;html=1;" parent="t_qoF288QhMvxmbiIuJE-47" vertex="1">
          <mxGeometry x="115" y="140" width="140" height="70" as="geometry" />
        </mxCell>
        <mxCell id="t_qoF288QhMvxmbiIuJE-24" value="일정 삭제" style="ellipse;whiteSpace=wrap;html=1;" parent="t_qoF288QhMvxmbiIuJE-47" vertex="1">
          <mxGeometry x="115" y="240" width="140" height="70" as="geometry" />
        </mxCell>
        <mxCell id="t_qoF288QhMvxmbiIuJE-51" value="일정 조회" style="ellipse;whiteSpace=wrap;html=1;" parent="t_qoF288QhMvxmbiIuJE-47" vertex="1">
          <mxGeometry x="115" y="335" width="140" height="70" as="geometry" />
        </mxCell>
        <mxCell id="t_qoF288QhMvxmbiIuJE-49" value="" style="endArrow=none;html=1;rounded=0;exitX=1;exitY=0.3333333333333333;exitDx=0;exitDy=0;exitPerimeter=0;" parent="WIyWlLk6GJQsqaUBKTNV-1" source="t_qoF288QhMvxmbiIuJE-21" target="t_qoF288QhMvxmbiIuJE-22" edge="1">
          <mxGeometry width="50" height="50" relative="1" as="geometry">
            <mxPoint x="80" y="640" as="sourcePoint" />
            <mxPoint x="120" y="755" as="targetPoint" />
          </mxGeometry>
        </mxCell>
        <mxCell id="t_qoF288QhMvxmbiIuJE-50" value="" style="endArrow=none;html=1;rounded=0;entryX=0;entryY=0.5;entryDx=0;entryDy=0;exitX=1;exitY=0.3333333333333333;exitDx=0;exitDy=0;exitPerimeter=0;" parent="WIyWlLk6GJQsqaUBKTNV-1" source="t_qoF288QhMvxmbiIuJE-21" target="t_qoF288QhMvxmbiIuJE-24" edge="1">
          <mxGeometry width="50" height="50" relative="1" as="geometry">
            <mxPoint x="60" y="790" as="sourcePoint" />
            <mxPoint x="120" y="755" as="targetPoint" />
          </mxGeometry>
        </mxCell>
        <mxCell id="t_qoF288QhMvxmbiIuJE-52" value="" style="endArrow=none;html=1;rounded=0;exitX=1;exitY=0.3333333333333333;exitDx=0;exitDy=0;exitPerimeter=0;entryX=0;entryY=0.5;entryDx=0;entryDy=0;" parent="WIyWlLk6GJQsqaUBKTNV-1" source="t_qoF288QhMvxmbiIuJE-21" target="t_qoF288QhMvxmbiIuJE-51" edge="1">
          <mxGeometry width="50" height="50" relative="1" as="geometry">
            <mxPoint x="60" y="790" as="sourcePoint" />
            <mxPoint x="90" y="905" as="targetPoint" />
          </mxGeometry>
        </mxCell>
        <mxCell id="t_qoF288QhMvxmbiIuJE-53" value="Database" style="shape=datastore;whiteSpace=wrap;html=1;" parent="WIyWlLk6GJQsqaUBKTNV-1" vertex="1">
          <mxGeometry x="520" y="840" width="70" height="130" as="geometry" />
        </mxCell>
        <mxCell id="t_qoF288QhMvxmbiIuJE-48" value="" style="endArrow=none;html=1;rounded=0;exitX=1;exitY=0.3333333333333333;exitDx=0;exitDy=0;exitPerimeter=0;" parent="WIyWlLk6GJQsqaUBKTNV-1" source="t_qoF288QhMvxmbiIuJE-21" target="t_qoF288QhMvxmbiIuJE-23" edge="1">
          <mxGeometry width="50" height="50" relative="1" as="geometry">
            <mxPoint x="80" y="660" as="sourcePoint" />
            <mxPoint x="215" y="790" as="targetPoint" />
          </mxGeometry>
        </mxCell>
        <mxCell id="t_qoF288QhMvxmbiIuJE-54" value="사용자 인증" style="ellipse;whiteSpace=wrap;html=1;" parent="WIyWlLk6GJQsqaUBKTNV-1" vertex="1">
          <mxGeometry x="460" y="725" width="140" height="70" as="geometry" />
        </mxCell>
        <mxCell id="t_qoF288QhMvxmbiIuJE-55" value="" style="endArrow=none;html=1;rounded=0;entryX=0;entryY=0.5;entryDx=0;entryDy=0;exitX=1;exitY=0.5;exitDx=0;exitDy=0;" parent="WIyWlLk6GJQsqaUBKTNV-1" source="t_qoF288QhMvxmbiIuJE-23" target="t_qoF288QhMvxmbiIuJE-54" edge="1">
          <mxGeometry width="50" height="50" relative="1" as="geometry">
            <mxPoint x="430" y="870" as="sourcePoint" />
            <mxPoint x="480" y="820" as="targetPoint" />
          </mxGeometry>
        </mxCell>
        <mxCell id="t_qoF288QhMvxmbiIuJE-56" value="" style="endArrow=none;html=1;rounded=0;entryX=0;entryY=0.5;entryDx=0;entryDy=0;exitX=1;exitY=0.5;exitDx=0;exitDy=0;" parent="WIyWlLk6GJQsqaUBKTNV-1" source="t_qoF288QhMvxmbiIuJE-24" target="t_qoF288QhMvxmbiIuJE-54" edge="1">
          <mxGeometry width="50" height="50" relative="1" as="geometry">
            <mxPoint x="420" y="895" as="sourcePoint" />
            <mxPoint x="470" y="845" as="targetPoint" />
          </mxGeometry>
        </mxCell>
        <mxCell id="BEzaFgJP4w1K-rzHnB7p-6" style="edgeStyle=orthogonalEdgeStyle;rounded=0;orthogonalLoop=1;jettySize=auto;html=1;entryX=0.5;entryY=1;entryDx=0;entryDy=0;" edge="1" parent="WIyWlLk6GJQsqaUBKTNV-1" source="BEzaFgJP4w1K-rzHnB7p-0" target="BEzaFgJP4w1K-rzHnB7p-4">
          <mxGeometry relative="1" as="geometry" />
        </mxCell>
        <mxCell id="BEzaFgJP4w1K-rzHnB7p-0" value="Schedule" style="swimlane;childLayout=stackLayout;horizontal=1;startSize=50;horizontalStack=0;rounded=1;fontSize=14;fontStyle=0;strokeWidth=2;resizeParent=0;resizeLast=1;shadow=0;dashed=0;align=center;arcSize=4;whiteSpace=wrap;html=1;" vertex="1" parent="WIyWlLk6GJQsqaUBKTNV-1">
          <mxGeometry x="115" y="230" width="160" height="170" as="geometry" />
        </mxCell>
        <mxCell id="BEzaFgJP4w1K-rzHnB7p-1" value="id (Long)&lt;div&gt;title (String)&lt;/div&gt;&lt;div&gt;content (String)&lt;/div&gt;&lt;div&gt;worker (String)&lt;/div&gt;&lt;div&gt;password (String)&lt;/div&gt;&lt;div&gt;created_at(LocalDateTime)&lt;/div&gt;&lt;div&gt;modified_at(LocalDateTime)&lt;/div&gt;" style="align=left;strokeColor=none;fillColor=none;spacingLeft=4;fontSize=12;verticalAlign=top;resizable=0;rotatable=0;part=1;html=1;" vertex="1" parent="BEzaFgJP4w1K-rzHnB7p-0">
          <mxGeometry y="50" width="160" height="120" as="geometry" />
        </mxCell>
        <mxCell id="BEzaFgJP4w1K-rzHnB7p-3" value="Timestamped" style="swimlane;childLayout=stackLayout;horizontal=1;startSize=50;horizontalStack=0;rounded=1;fontSize=14;fontStyle=0;strokeWidth=2;resizeParent=0;resizeLast=1;shadow=0;dashed=0;align=center;arcSize=4;whiteSpace=wrap;html=1;" vertex="1" parent="WIyWlLk6GJQsqaUBKTNV-1">
          <mxGeometry x="110" y="40" width="170" height="120" as="geometry" />
        </mxCell>
        <mxCell id="BEzaFgJP4w1K-rzHnB7p-4" value="createdAt(LocalDateTime)&lt;div&gt;modifiedAt(LocalDateTime)&lt;/div&gt;" style="align=left;strokeColor=none;fillColor=none;spacingLeft=4;fontSize=12;verticalAlign=top;resizable=0;rotatable=0;part=1;html=1;" vertex="1" parent="BEzaFgJP4w1K-rzHnB7p-3">
          <mxGeometry y="50" width="170" height="70" as="geometry" />
        </mxCell>
        <mxCell id="BEzaFgJP4w1K-rzHnB7p-28" value="Table" style="shape=table;startSize=30;container=1;collapsible=1;childLayout=tableLayout;fixedRows=1;rowLines=0;fontStyle=1;align=center;resizeLast=1;html=1;" vertex="1" parent="WIyWlLk6GJQsqaUBKTNV-1">
          <mxGeometry x="400" y="240" width="220" height="170" as="geometry">
            <mxRectangle x="400" y="240" width="70" height="30" as="alternateBounds" />
          </mxGeometry>
        </mxCell>
        <mxCell id="BEzaFgJP4w1K-rzHnB7p-29" value="" style="shape=tableRow;horizontal=0;startSize=0;swimlaneHead=0;swimlaneBody=0;fillColor=none;collapsible=0;dropTarget=0;points=[[0,0.5],[1,0.5]];portConstraint=eastwest;top=0;left=0;right=0;bottom=1;" vertex="1" parent="BEzaFgJP4w1K-rzHnB7p-28">
          <mxGeometry y="30" width="220" height="30" as="geometry" />
        </mxCell>
        <mxCell id="BEzaFgJP4w1K-rzHnB7p-30" value="PK" style="shape=partialRectangle;connectable=0;fillColor=none;top=0;left=0;bottom=0;right=0;fontStyle=1;overflow=hidden;whiteSpace=wrap;html=1;" vertex="1" parent="BEzaFgJP4w1K-rzHnB7p-29">
          <mxGeometry width="30" height="30" as="geometry">
            <mxRectangle width="30" height="30" as="alternateBounds" />
          </mxGeometry>
        </mxCell>
        <mxCell id="BEzaFgJP4w1K-rzHnB7p-31" value="UniqueID" style="shape=partialRectangle;connectable=0;fillColor=none;top=0;left=0;bottom=0;right=0;align=left;spacingLeft=6;fontStyle=5;overflow=hidden;whiteSpace=wrap;html=1;" vertex="1" parent="BEzaFgJP4w1K-rzHnB7p-29">
          <mxGeometry x="30" width="190" height="30" as="geometry">
            <mxRectangle width="190" height="30" as="alternateBounds" />
          </mxGeometry>
        </mxCell>
        <mxCell id="BEzaFgJP4w1K-rzHnB7p-38" value="" style="shape=tableRow;horizontal=0;startSize=0;swimlaneHead=0;swimlaneBody=0;fillColor=none;collapsible=0;dropTarget=0;points=[[0,0.5],[1,0.5]];portConstraint=eastwest;top=0;left=0;right=0;bottom=0;" vertex="1" parent="BEzaFgJP4w1K-rzHnB7p-28">
          <mxGeometry y="60" width="220" height="110" as="geometry" />
        </mxCell>
        <mxCell id="BEzaFgJP4w1K-rzHnB7p-39" value="" style="shape=partialRectangle;connectable=0;fillColor=none;top=0;left=0;bottom=0;right=0;editable=1;overflow=hidden;whiteSpace=wrap;html=1;" vertex="1" parent="BEzaFgJP4w1K-rzHnB7p-38">
          <mxGeometry width="30" height="110" as="geometry">
            <mxRectangle width="30" height="110" as="alternateBounds" />
          </mxGeometry>
        </mxCell>
        <mxCell id="BEzaFgJP4w1K-rzHnB7p-40" value="id (pk) (bigint)&lt;div&gt;title (varchar)&lt;/div&gt;&lt;div&gt;content (varchar)&lt;/div&gt;&lt;div&gt;worker (varchar)&lt;/div&gt;&lt;div&gt;password ( varchar )&lt;/div&gt;&lt;div&gt;created_at (Timestamp)&lt;/div&gt;&lt;div&gt;modified_at (Timestamp)&lt;/div&gt;" style="shape=partialRectangle;connectable=0;fillColor=none;top=0;left=0;bottom=0;right=0;align=left;spacingLeft=6;overflow=hidden;whiteSpace=wrap;html=1;" vertex="1" parent="BEzaFgJP4w1K-rzHnB7p-38">
          <mxGeometry x="30" width="190" height="110" as="geometry">
            <mxRectangle width="190" height="110" as="alternateBounds" />
          </mxGeometry>
        </mxCell>
        <mxCell id="BEzaFgJP4w1K-rzHnB7p-41" style="edgeStyle=orthogonalEdgeStyle;rounded=0;orthogonalLoop=1;jettySize=auto;html=1;entryX=-0.019;entryY=0.368;entryDx=0;entryDy=0;entryPerimeter=0;" edge="1" parent="WIyWlLk6GJQsqaUBKTNV-1" source="BEzaFgJP4w1K-rzHnB7p-1" target="BEzaFgJP4w1K-rzHnB7p-38">
          <mxGeometry relative="1" as="geometry" />
        </mxCell>
      </root>
    </mxGraphModel>
  </diagram>
</mxfile>
